<svg xmlns="http://www.w3.org/2000/svg" xmlns:xlink="http://www.w3.org/1999/xlink" id="processonSvg1000" viewBox="36.0 95.0 437.0 275.0" width="437.0" height="275.0"><defs id="ProcessOnDefs1001"><marker id="ProcessOnMarker1028" markerUnits="userSpaceOnUse" orient="auto" markerWidth="16.23606797749979" markerHeight="10.550836550532098" viewBox="-1.0 -1.3763819204711736 16.23606797749979 10.550836550532098" refX="-1.0" refY="3.8990363547948754"><path id="ProcessOnPath1029" d="M12.0 3.8990363547948754L0.0 7.798072709589751V0.0Z" stroke="#ff0000" stroke-width="2.0" fill="#ff0000" transform="matrix(1.0,0.0,0.0,1.0,0.0,0.0)"/></marker><marker id="ProcessOnMarker1032" markerUnits="userSpaceOnUse" orient="auto" markerWidth="16.23606797749979" markerHeight="10.550836550532098" viewBox="-1.0 -1.3763819204711736 16.23606797749979 10.550836550532098" refX="-1.0" refY="3.8990363547948754"><path id="ProcessOnPath1033" d="M12.0 3.8990363547948754L0.0 7.798072709589751V0.0Z" stroke="#ff0000" stroke-width="2.0" fill="#ff0000" transform="matrix(1.0,0.0,0.0,1.0,0.0,0.0)"/></marker><marker id="ProcessOnMarker1036" markerUnits="userSpaceOnUse" orient="auto" markerWidth="16.23606797749979" markerHeight="10.550836550532098" viewBox="-1.0 -1.3763819204711736 16.23606797749979 10.550836550532098" refX="-1.0" refY="3.8990363547948754"><path id="ProcessOnPath1037" d="M12.0 3.8990363547948754L0.0 7.798072709589751V0.0Z" stroke="#ff0000" stroke-width="2.0" fill="#ff0000" transform="matrix(1.0,0.0,0.0,1.0,0.0,0.0)"/></marker><marker id="ProcessOnMarker1040" markerUnits="userSpaceOnUse" orient="auto" markerWidth="16.23606797749979" markerHeight="10.550836550532098" viewBox="-1.0 -1.3763819204711736 16.23606797749979 10.550836550532098" refX="-1.0" refY="3.8990363547948754"><path id="ProcessOnPath1041" d="M12.0 3.8990363547948754L0.0 7.798072709589751V0.0Z" stroke="#ff0000" stroke-width="2.0" fill="#ff0000" transform="matrix(1.0,0.0,0.0,1.0,0.0,0.0)"/></marker><marker id="ProcessOnMarker1044" markerUnits="userSpaceOnUse" orient="auto" markerWidth="16.23606797749979" markerHeight="10.550836550532098" viewBox="-1.0 -1.3763819204711736 16.23606797749979 10.550836550532098" refX="-1.0" refY="3.8990363547948754"><path id="ProcessOnPath1045" d="M12.0 3.8990363547948754L0.0 7.798072709589751V0.0Z" stroke="#ff0000" stroke-width="2.0" fill="#ff0000" transform="matrix(1.0,0.0,0.0,1.0,0.0,0.0)"/></marker><marker id="ProcessOnMarker1048" markerUnits="userSpaceOnUse" orient="auto" markerWidth="16.23606797749979" markerHeight="10.550836550532098" viewBox="-1.0 -1.3763819204711736 16.23606797749979 10.550836550532098" refX="-1.0" refY="3.8990363547948754"><path id="ProcessOnPath1049" d="M12.0 3.8990363547948754L0.0 7.798072709589751V0.0Z" stroke="#ff0000" stroke-width="2.0" fill="#ff0000" transform="matrix(1.0,0.0,0.0,1.0,0.0,0.0)"/></marker><marker id="ProcessOnMarker1052" markerUnits="userSpaceOnUse" orient="auto" markerWidth="16.23606797749979" markerHeight="10.550836550532098" viewBox="-1.0 -1.3763819204711736 16.23606797749979 10.550836550532098" refX="-1.0" refY="3.8990363547948754"><path id="ProcessOnPath1053" d="M12.0 3.8990363547948754L0.0 7.798072709589751V0.0Z" stroke="#0066cc" stroke-width="2.0" fill="#0066cc" transform="matrix(1.0,0.0,0.0,1.0,0.0,0.0)"/></marker><marker id="ProcessOnMarker1060" markerUnits="userSpaceOnUse" orient="auto" markerWidth="16.23606797749979" markerHeight="10.550836550532098" viewBox="-1.0 -1.3763819204711736 16.23606797749979 10.550836550532098" refX="-1.0" refY="3.8990363547948754"><path id="ProcessOnPath1061" d="M12.0 3.8990363547948754L0.0 7.798072709589751V0.0Z" stroke="#0066cc" stroke-width="2.0" fill="#0066cc" transform="matrix(1.0,0.0,0.0,1.0,0.0,0.0)"/></marker><marker id="ProcessOnMarker1068" markerUnits="userSpaceOnUse" orient="auto" markerWidth="16.23606797749979" markerHeight="10.550836550532098" viewBox="-1.0 -1.3763819204711736 16.23606797749979 10.550836550532098" refX="-1.0" refY="3.8990363547948754"><path id="ProcessOnPath1069" d="M12.0 3.8990363547948754L0.0 7.798072709589751V0.0Z" stroke="#00cc00" stroke-width="2.0" fill="#00cc00" transform="matrix(1.0,0.0,0.0,1.0,0.0,0.0)"/></marker><pattern id="ProcessOnPattern1076" patternUnits="userSpaceOnUse" width="34.0" height="35.33332824707031"><image id="ProcessOnImage1077"/></pattern><pattern id="ProcessOnPattern1080" patternUnits="userSpaceOnUse" width="35.0" height="34.0"><image id="ProcessOnImage1081"/></pattern><pattern id="ProcessOnPattern1084" patternUnits="userSpaceOnUse" width="34.0" height="34.0"><image id="ProcessOnImage1085"/></pattern><marker id="ProcessOnMarker1088" markerUnits="userSpaceOnUse" orient="auto" markerWidth="16.23606797749979" markerHeight="10.550836550532098" viewBox="-1.0 -1.3763819204711736 16.23606797749979 10.550836550532098" refX="-1.0" refY="3.8990363547948754"><path id="ProcessOnPath1089" d="M12.0 3.8990363547948754L0.0 7.798072709589751V0.0Z" stroke="#ff0000" stroke-width="2.0" fill="#ff0000" transform="matrix(1.0,0.0,0.0,1.0,0.0,0.0)"/></marker></defs><g id="ProcessOnG1002"><path id="ProcessOnPath1003" d="M36.0 95.0H473.0V370.0H36.0V95.0Z" fill="none"/><g id="ProcessOnG1004"><g id="ProcessOnG1005" transform="matrix(1.0,0.0,0.0,1.0,121.0,115.0)" opacity="1.0"><g id="ProcessOnG1007" transform="matrix(1.0,0.0,0.0,1.0,0.0,0.0)"> <path fill="#147CFA" d="M14,1C6.821,1,1,6.821,1,14c0,7.18,5.821,13,13,13c7.18,0,13-5.82,13-13C27,6.821,21.18,1,14,1z M22.059,22.971c-0.166,0.148-0.33,0.297-0.502,0.437c-0.145,0.116-0.297,0.225-0.447,0.333c-0.164,0.12-0.324,0.24-0.491,0.35 c-0.164,0.107-0.334,0.206-0.506,0.308c-0.163,0.097-0.327,0.195-0.494,0.282c-0.175,0.094-0.356,0.175-0.536,0.26 c-0.174,0.08-0.346,0.163-0.521,0.234c-0.181,0.072-0.367,0.137-0.553,0.202c-0.181,0.063-0.363,0.132-0.545,0.187 c-0.191,0.057-0.387,0.102-0.581,0.148c-0.183,0.045-0.366,0.095-0.55,0.132c-0.225,0.043-0.455,0.072-0.684,0.104 c-0.156,0.021-0.313,0.051-0.468,0.065c-0.388,0.037-0.782,0.061-1.181,0.061c-0.399,0-0.792-0.023-1.179-0.061 c-0.158-0.015-0.314-0.043-0.472-0.065c-0.228-0.03-0.456-0.06-0.679-0.103c-0.187-0.037-0.37-0.088-0.555-0.133 c-0.193-0.047-0.386-0.092-0.575-0.147c-0.185-0.056-0.368-0.125-0.552-0.188c-0.185-0.063-0.368-0.127-0.547-0.2 c-0.176-0.071-0.35-0.155-0.524-0.237c-0.178-0.083-0.357-0.164-0.533-0.256c-0.168-0.088-0.333-0.188-0.498-0.285 c-0.169-0.101-0.34-0.199-0.504-0.305c-0.168-0.11-0.331-0.231-0.494-0.352c-0.149-0.108-0.3-0.217-0.445-0.333 c-0.171-0.138-0.336-0.288-0.502-0.437c-0.099-0.09-0.2-0.176-0.297-0.271c0.249-4.634,5.439-3.965,6.209-6.372 c0.062-0.826,0.039-1.397,0.039-2.157c-0.319-0.189-0.917-1.444-1.013-2.5c-0.252-0.02-0.653-0.307-0.768-1.439 c-0.067-0.609,0.187-0.949,0.334-1.057c-0.844-3.793-0.386-7.108,3.437-7.239c0.031,0,0.06-0.004,0.093-0.004 c0.965,0.002,1.709,0.307,1.995,0.902c2.845,0.456,1.987,4.905,1.577,6.34c0.152,0.109,0.408,0.45,0.344,1.058 c-0.115,1.132-0.519,1.42-0.766,1.439c-0.096,1.057-0.674,2.311-0.996,2.5c0,0.759-0.021,1.332,0.04,2.157 c0.772,2.407,5.941,1.738,6.187,6.372C22.26,22.793,22.158,22.879,22.059,22.971z"/>  </g></g><g id="ProcessOnG1008" transform="matrix(1.0,0.0,0.0,1.0,121.0,211.0)" opacity="1.0"><g id="ProcessOnG1010" transform="matrix(1.0,0.0,0.0,1.0,0.0,0.0)"> <path fill="#147CFA" d="M14,1C6.821,1,1,6.821,1,14c0,7.18,5.821,13,13,13c7.18,0,13-5.82,13-13C27,6.821,21.18,1,14,1z M22.059,22.971c-0.166,0.148-0.33,0.297-0.502,0.437c-0.145,0.116-0.297,0.225-0.447,0.333c-0.164,0.12-0.324,0.24-0.491,0.35 c-0.164,0.107-0.334,0.206-0.506,0.308c-0.163,0.097-0.327,0.195-0.494,0.282c-0.175,0.094-0.356,0.175-0.536,0.26 c-0.174,0.08-0.346,0.163-0.521,0.234c-0.181,0.072-0.367,0.137-0.553,0.202c-0.181,0.063-0.363,0.132-0.545,0.187 c-0.191,0.057-0.387,0.102-0.581,0.148c-0.183,0.045-0.366,0.095-0.55,0.132c-0.225,0.043-0.455,0.072-0.684,0.104 c-0.156,0.021-0.313,0.051-0.468,0.065c-0.388,0.037-0.782,0.061-1.181,0.061c-0.399,0-0.792-0.023-1.179-0.061 c-0.158-0.015-0.314-0.043-0.472-0.065c-0.228-0.03-0.456-0.06-0.679-0.103c-0.187-0.037-0.37-0.088-0.555-0.133 c-0.193-0.047-0.386-0.092-0.575-0.147c-0.185-0.056-0.368-0.125-0.552-0.188c-0.185-0.063-0.368-0.127-0.547-0.2 c-0.176-0.071-0.35-0.155-0.524-0.237c-0.178-0.083-0.357-0.164-0.533-0.256c-0.168-0.088-0.333-0.188-0.498-0.285 c-0.169-0.101-0.34-0.199-0.504-0.305c-0.168-0.11-0.331-0.231-0.494-0.352c-0.149-0.108-0.3-0.217-0.445-0.333 c-0.171-0.138-0.336-0.288-0.502-0.437c-0.099-0.09-0.2-0.176-0.297-0.271c0.249-4.634,5.439-3.965,6.209-6.372 c0.062-0.826,0.039-1.397,0.039-2.157c-0.319-0.189-0.917-1.444-1.013-2.5c-0.252-0.02-0.653-0.307-0.768-1.439 c-0.067-0.609,0.187-0.949,0.334-1.057c-0.844-3.793-0.386-7.108,3.437-7.239c0.031,0,0.06-0.004,0.093-0.004 c0.965,0.002,1.709,0.307,1.995,0.902c2.845,0.456,1.987,4.905,1.577,6.34c0.152,0.109,0.408,0.45,0.344,1.058 c-0.115,1.132-0.519,1.42-0.766,1.439c-0.096,1.057-0.674,2.311-0.996,2.5c0,0.759-0.021,1.332,0.04,2.157 c0.772,2.407,5.941,1.738,6.187,6.372C22.26,22.793,22.158,22.879,22.059,22.971z"/>  </g></g><g id="ProcessOnG1011" transform="matrix(1.0,0.0,0.0,1.0,121.0,301.0)" opacity="1.0"><g id="ProcessOnG1013" transform="matrix(1.0,0.0,0.0,1.0,0.0,0.0)"> <path fill="#147CFA" d="M14,1C6.821,1,1,6.821,1,14c0,7.18,5.821,13,13,13c7.18,0,13-5.82,13-13C27,6.821,21.18,1,14,1z M22.059,22.971c-0.166,0.148-0.33,0.297-0.502,0.437c-0.145,0.116-0.297,0.225-0.447,0.333c-0.164,0.12-0.324,0.24-0.491,0.35 c-0.164,0.107-0.334,0.206-0.506,0.308c-0.163,0.097-0.327,0.195-0.494,0.282c-0.175,0.094-0.356,0.175-0.536,0.26 c-0.174,0.08-0.346,0.163-0.521,0.234c-0.181,0.072-0.367,0.137-0.553,0.202c-0.181,0.063-0.363,0.132-0.545,0.187 c-0.191,0.057-0.387,0.102-0.581,0.148c-0.183,0.045-0.366,0.095-0.55,0.132c-0.225,0.043-0.455,0.072-0.684,0.104 c-0.156,0.021-0.313,0.051-0.468,0.065c-0.388,0.037-0.782,0.061-1.181,0.061c-0.399,0-0.792-0.023-1.179-0.061 c-0.158-0.015-0.314-0.043-0.472-0.065c-0.228-0.03-0.456-0.06-0.679-0.103c-0.187-0.037-0.37-0.088-0.555-0.133 c-0.193-0.047-0.386-0.092-0.575-0.147c-0.185-0.056-0.368-0.125-0.552-0.188c-0.185-0.063-0.368-0.127-0.547-0.2 c-0.176-0.071-0.35-0.155-0.524-0.237c-0.178-0.083-0.357-0.164-0.533-0.256c-0.168-0.088-0.333-0.188-0.498-0.285 c-0.169-0.101-0.34-0.199-0.504-0.305c-0.168-0.11-0.331-0.231-0.494-0.352c-0.149-0.108-0.3-0.217-0.445-0.333 c-0.171-0.138-0.336-0.288-0.502-0.437c-0.099-0.09-0.2-0.176-0.297-0.271c0.249-4.634,5.439-3.965,6.209-6.372 c0.062-0.826,0.039-1.397,0.039-2.157c-0.319-0.189-0.917-1.444-1.013-2.5c-0.252-0.02-0.653-0.307-0.768-1.439 c-0.067-0.609,0.187-0.949,0.334-1.057c-0.844-3.793-0.386-7.108,3.437-7.239c0.031,0,0.06-0.004,0.093-0.004 c0.965,0.002,1.709,0.307,1.995,0.902c2.845,0.456,1.987,4.905,1.577,6.34c0.152,0.109,0.408,0.45,0.344,1.058 c-0.115,1.132-0.519,1.42-0.766,1.439c-0.096,1.057-0.674,2.311-0.996,2.5c0,0.759-0.021,1.332,0.04,2.157 c0.772,2.407,5.941,1.738,6.187,6.372C22.26,22.793,22.158,22.879,22.059,22.971z"/>  </g></g><g id="ProcessOnG1014" transform="matrix(1.0,0.0,0.0,1.0,91.5,138.0)" opacity="1.0"><path id="ProcessOnPath1015" d="M0.0 0.0L87.0 0.0L87.0 25.0L0.0 25.0Z" stroke="none" stroke-width="0.0" stroke-dasharray="none" opacity="1.0" fill="none"/><g id="ProcessOnG1016" transform="matrix(1.0,0.0,0.0,1.0,0.0,4.375)"><text id="ProcessOnText1017" fill="#000000" font-size="13" x="42.5" y="13.325" font-family="微软雅黑" font-weight="normal" font-style="normal" text-decoration="none" family="微软雅黑" text-anchor="middle" size="13">user A</text></g></g><g id="ProcessOnG1018" transform="matrix(1.0,0.0,0.0,1.0,91.5,234.0)" opacity="1.0"><path id="ProcessOnPath1019" d="M0.0 0.0L87.0 0.0L87.0 25.0L0.0 25.0Z" stroke="none" stroke-width="0.0" stroke-dasharray="none" opacity="1.0" fill="none"/><g id="ProcessOnG1020" transform="matrix(1.0,0.0,0.0,1.0,0.0,4.375)"><text id="ProcessOnText1021" fill="#000000" font-size="13" x="42.5" y="13.325" font-family="微软雅黑" font-weight="normal" font-style="normal" text-decoration="none" family="微软雅黑" text-anchor="middle" size="13">user B</text></g></g><g id="ProcessOnG1022" transform="matrix(1.0,0.0,0.0,1.0,91.5,325.0)" opacity="1.0"><path id="ProcessOnPath1023" d="M0.0 0.0L87.0 0.0L87.0 25.0L0.0 25.0Z" stroke="none" stroke-width="0.0" stroke-dasharray="none" opacity="1.0" fill="none"/><g id="ProcessOnG1024" transform="matrix(1.0,0.0,0.0,1.0,0.0,4.375)"><text id="ProcessOnText1025" fill="#000000" font-size="13" x="42.5" y="13.325" font-family="微软雅黑" font-weight="normal" font-style="normal" text-decoration="none" family="微软雅黑" text-anchor="middle" size="13">user C</text></g></g><g id="ProcessOnG1026"><path id="ProcessOnPath1027" d="M155.0 133.0L299.62971678206526 212.02762540016997" stroke="#ff0000" stroke-width="2.0" stroke-dasharray="none" fill="none" marker-end="url(#ProcessOnMarker1028)"/></g><g id="ProcessOnG1030"><path id="ProcessOnPath1031" d="M154.0 225.0L294.7639320225002 225.0" stroke="#ff0000" stroke-width="2.0" stroke-dasharray="none" fill="none" marker-end="url(#ProcessOnMarker1032)"/></g><g id="ProcessOnG1034"><path id="ProcessOnPath1035" d="M151.0 314.0L300.75111158405747 149.27377725753678" stroke="#ff0000" stroke-width="2.0" stroke-dasharray="none" fill="none" marker-end="url(#ProcessOnMarker1036)"/></g><g id="ProcessOnG1038"><path id="ProcessOnPath1039" d="M154.0 322.0L289.2639320225002 322.0" stroke="#ff0000" stroke-width="2.0" stroke-dasharray="none" fill="none" marker-end="url(#ProcessOnMarker1040)"/></g><g id="ProcessOnG1042"><path id="ProcessOnPath1043" d="M154.0 317.0L294.5034106950806 243.4029707096939" stroke="#ff0000" stroke-width="2.0" stroke-dasharray="none" fill="none" marker-end="url(#ProcessOnMarker1044)"/></g><g id="ProcessOnG1046"><path id="ProcessOnPath1047" d="M373.0 307.0L436.7639320225002 307.0" stroke="#ff0000" stroke-width="2.0" stroke-dasharray="none" fill="none" marker-end="url(#ProcessOnMarker1048)"/></g><g id="ProcessOnG1050"><path id="ProcessOnPath1051" d="M309.0 317.0L168.26353987445844 162.59376858750088" stroke="#0066cc" stroke-width="2.0" stroke-dasharray="none" fill="none" marker-end="url(#ProcessOnMarker1052)"/></g><g id="ProcessOnG1054" transform="matrix(1.0,0.0,0.0,1.0,375.0,287.0)" opacity="1.0"><path id="ProcessOnPath1055" d="M0.0 0.0L74.0 0.0L74.0 21.0L0.0 21.0Z" stroke="none" stroke-width="0.0" stroke-dasharray="none" opacity="1.0" fill="none"/><g id="ProcessOnG1056" transform="matrix(1.0,0.0,0.0,1.0,0.0,2.375)"><text id="ProcessOnText1057" fill="#000000" font-size="13" x="36.0" y="13.325" font-family="微软雅黑" font-weight="normal" font-style="normal" text-decoration="none" family="微软雅黑" text-anchor="middle" size="13">喜欢</text></g></g><g id="ProcessOnG1058"><path id="ProcessOnPath1059" d="M374.0 330.0L437.7639320225002 330.0" stroke="#0066cc" stroke-width="2.0" stroke-dasharray="none" fill="none" marker-end="url(#ProcessOnMarker1060)"/></g><g id="ProcessOnG1062" transform="matrix(1.0,0.0,0.0,1.0,375.0,308.0)" opacity="1.0"><path id="ProcessOnPath1063" d="M0.0 0.0L74.0 0.0L74.0 21.0L0.0 21.0Z" stroke="none" stroke-width="0.0" stroke-dasharray="none" opacity="1.0" fill="none"/><g id="ProcessOnG1064" transform="matrix(1.0,0.0,0.0,1.0,0.0,2.375)"><text id="ProcessOnText1065" fill="#000000" font-size="13" x="36.0" y="13.325" font-family="微软雅黑" font-weight="normal" font-style="normal" text-decoration="none" family="微软雅黑" text-anchor="middle" size="13">推荐</text></g></g><g id="ProcessOnG1066"><path id="ProcessOnPath1067" d="M116.0 126.66666412353516C79.0 152.66666412353516 74.0 282.66666412353516 103.9270902233759 305.70577507586086" stroke="#00cc00" stroke-width="2.0" stroke-dasharray="10.0 4.0" fill="none" marker-end="url(#ProcessOnMarker1068)"/></g><g id="ProcessOnG1070" transform="matrix(1.0,0.0,0.0,1.0,56.0,195.0)" opacity="1.0"><path id="ProcessOnPath1071" d="M0.0 0.0L30.0 0.0L30.0 50.0L0.0 50.0Z" stroke="none" stroke-width="0.0" stroke-dasharray="none" opacity="1.0" fill="none"/><g id="ProcessOnG1072" transform="matrix(1.0,0.0,0.0,1.0,0.0,16.875)"><text id="ProcessOnText1073" fill="#00cc00" font-size="13" x="14.0" y="13.325" font-family="微软雅黑" font-weight="normal" font-style="normal" text-decoration="none" family="微软雅黑" text-anchor="middle" size="13">相似</text></g></g><g id="ProcessOnG1074" transform="matrix(1.0,0.0,0.0,1.0,320.0,115.0)" opacity="1.0"><path id="ProcessOnPath1075" d="M0.0 0.0L34.0 0.0L34.0 35.33332824707031L0.0 35.33332824707031Z" stroke="none" stroke-width="0.0" stroke-dasharray="none" opacity="1.0"/></g><g id="ProcessOnG1078" transform="matrix(1.0,0.0,0.0,1.0,320.0,206.0)" opacity="1.0"><path id="ProcessOnPath1079" d="M0.0 0.0L35.0 0.0L35.0 34.0L0.0 34.0Z" stroke="none" stroke-width="0.0" stroke-dasharray="none" opacity="1.0"/></g><g id="ProcessOnG1082" transform="matrix(1.0,0.0,0.0,1.0,320.0,288.83333587646484)" opacity="1.0"><path id="ProcessOnPath1083" d="M0.0 0.0L34.0 0.0L34.0 34.0L0.0 34.0Z" stroke="none" stroke-width="0.0" stroke-dasharray="none" opacity="1.0"/></g><g id="ProcessOnG1086"><path id="ProcessOnPath1087" d="M155.5 125.33332824707031L299.7639320225002 125.33332824707031" stroke="#ff0000" stroke-width="2.0" stroke-dasharray="none" fill="none" marker-end="url(#ProcessOnMarker1088)"/></g><g id="ProcessOnG1090" transform="matrix(1.0,0.0,0.0,1.0,290.5,153.3333282470703)" opacity="1.0"><path id="ProcessOnPath1091" d="M0.0 0.0L87.0 0.0L87.0 25.0L0.0 25.0Z" stroke="none" stroke-width="0.0" stroke-dasharray="none" opacity="1.0" fill="none"/><g id="ProcessOnG1092" transform="matrix(1.0,0.0,0.0,1.0,0.0,4.375)"><text id="ProcessOnText1093" fill="#000000" font-size="13" x="42.5" y="13.325" font-family="微软雅黑" font-weight="normal" font-style="normal" text-decoration="none" family="微软雅黑" text-anchor="middle" size="13">news A</text></g></g><g id="ProcessOnG1094" transform="matrix(1.0,0.0,0.0,1.0,293.5,245.0)" opacity="1.0"><path id="ProcessOnPath1095" d="M0.0 0.0L87.0 0.0L87.0 25.0L0.0 25.0Z" stroke="none" stroke-width="0.0" stroke-dasharray="none" opacity="1.0" fill="none"/><g id="ProcessOnG1096" transform="matrix(1.0,0.0,0.0,1.0,0.0,4.375)"><text id="ProcessOnText1097" fill="#000000" font-size="13" x="42.5" y="13.325" font-family="微软雅黑" font-weight="normal" font-style="normal" text-decoration="none" family="微软雅黑" text-anchor="middle" size="13">news B</text></g></g><g id="ProcessOnG1098" transform="matrix(1.0,0.0,0.0,1.0,293.5,322.83333587646484)" opacity="1.0"><path id="ProcessOnPath1099" d="M0.0 0.0L87.0 0.0L87.0 25.0L0.0 25.0Z" stroke="none" stroke-width="0.0" stroke-dasharray="none" opacity="1.0" fill="none"/><g id="ProcessOnG1100" transform="matrix(1.0,0.0,0.0,1.0,0.0,4.375)"><text id="ProcessOnText1101" fill="#000000" font-size="13" x="42.5" y="13.325" font-family="微软雅黑" font-weight="normal" font-style="normal" text-decoration="none" family="微软雅黑" text-anchor="middle" size="13">news C</text></g></g></g></g></svg>