<?xml version="1.0" standalone="no"?><!DOCTYPE svg PUBLIC "-//W3C//DTD SVG 1.1//EN" "http://www.w3.org/Graphics/SVG/1.1/DTD/svg11.dtd"><svg t="1496490339019" class="icon" style="" viewBox="0 0 1024 1024" version="1.1" xmlns="http://www.w3.org/2000/svg" p-id="3846" xmlns:xlink="http://www.w3.org/1999/xlink" width="64" height="64"><defs><style type="text/css"></style></defs><path d="M357.79257 199.987801a31.282487 31.267166 0 1 0 62.564974 0 31.282487 31.267166 0 1 0-62.564974 0Z" fill="#811A1E" p-id="3847"></path><path d="M529.217434 199.987801a31.282487 31.267166 0 1 0 62.564974 0 31.282487 31.267166 0 1 0-62.564974 0Z" fill="#811A1E" p-id="3848"></path><path d="M476.640741 356.393853c-31.293978 0-57.768097-13.043626-66.566416-31.000318-2.021149 4.125289-3.111523 8.508489-3.111523 13.053841 0 24.330398 31.195666 44.052882 69.677939 44.052881s69.677939-19.723761 69.677939-44.052881c0-4.545351-1.089097-8.928551-3.110246-13.053841-8.799596 17.956692-35.273714 31.000318-66.567693 31.000318z" fill="#B5A59D" p-id="3849"></path><path d="M356.693259 983.531051c-0.016598-0.898856-0.03575-1.797712-0.049795-2.697845 0.014045 0.898856 0.033196 1.798989 0.049795 2.697845zM356.993303 995.087224l-0.03958-1.271677c0.015321 0.422616 0.025536 0.847785 0.03958 1.271677zM356.649848 957.174397v0.008937-0.008937z" fill="#B5A59D" p-id="3850"></path><path d="M404.849725 704.93293c-0.490285 1.288275-0.966526 2.580381-1.450427 3.87121 0.482624-1.289552 0.960142-2.582934 1.450427-3.87121zM398.594759 722.003534c-0.500499 1.418507-0.988231 2.840845-1.479792 4.261905 0.491562-1.421061 0.979293-2.843398 1.479792-4.261905zM401.669256 713.450357c-0.501776 1.367436-0.989508 2.738702-1.482347 4.108691 0.492839-1.369989 0.98057-2.741255 1.482347-4.108691zM377.983634 791.031589zM411.546457 687.958086c-0.388142 0.949927-0.763517 1.902408-1.147829 2.853612 0.384312-0.949927 0.759687-1.903685 1.147829-2.853612zM408.143828 696.432102c-0.462196 1.169534-0.90907 2.344176-1.364882 3.514986 0.454535-1.170811 0.902686-2.344176 1.364882-3.514986zM370.356126 825.61584zM373.943889 808.360103zM372.093829 817.000101zM375.90886 799.693293zM368.739717 834.153695zM390.035199 747.776697zM367.243326 842.586854zM380.173318 782.359672zM382.47153 773.699245zM365.874613 850.851478c-5.576993 34.951965-8.660427 70.424857-9.223488 106.29483 0.563062-35.871249 3.647772-71.344142 9.223488-106.29483zM395.630067 730.577139c-0.497946 1.469578-0.984401 2.942987-1.473409 4.415119 0.489008-1.472132 0.975463-2.945541 1.473409-4.415119zM384.882098 765.046479zM392.777731 739.166065c-0.494115 1.519373-0.978017 3.042577-1.461918 4.564504 0.483901-1.521927 0.967802-3.04513 1.461918-4.564504zM387.40247 756.405204zM356.545152 969.179998zM356.955 993.815547zM356.643464 980.833206zM356.993303 995.087224l0 0zM613.812041 457.658154c0.497946-0.473687 0.994615-0.947374 1.493837-1.419784-0.632008 0.425169-1.252525 0.86566-1.88964 1.285721 0.131509 0.042134 0.263018 0.089375 0.395803 0.134063z" fill="#B5A59D" p-id="3851"></path><path d="M877.796091 701.377086c-21.930044-51.824667-53.318504-98.36217-93.293337-138.317851-39.974833-39.956958-86.532766-71.331374-138.381691-93.251204a435.18803 435.18803 0 0 0-32.309022-12.149877c-0.131509-0.043411-0.263018-0.091928-0.395803-0.13534 0.637115-0.418785 1.256356-0.860552 1.88964-1.285721a251.296647 251.296647 0 0 0 46.649861-40.477887c20.955857-23.273221 37.608952-50.48532 48.665903-80.393987 9.928273-26.853323 15.36482-55.863135 15.36482-86.122918 0-137.42538-111.855225-249.229533-249.343167-249.229533S227.296297 111.818198 227.296297 249.243578c0 86.978363 44.816399 163.677338 112.570224 208.279236A438.44766 438.44766 0 0 0 312.346717 467.678355c-1.730042 0.704785-3.462638 1.400632-5.185021 2.129676a437.473474 437.473474 0 0 0-31.64637 14.924329c-39.275156 20.445144-75.077459 46.683057-106.736597 78.326875-39.974833 39.956958-71.363294 86.493185-93.293338 138.317851-22.712712 53.670896-34.228028 110.667815-34.228028 169.402438 0 8.037356 3.163871 50.040999 65.624149 87.740603 54.375681 32.817182 138.668968 53.411709 251.374531 61.525673-0.556678-8.296543-0.556678-8.296543 0 0a1434.786132 1434.786132 0 0 0 37.80813 2.192238c25.565048 1.161874 52.408157 1.758132 80.575291 1.758132 6.502661 0 12.909564-0.043411 19.273056-0.105973 12.802314-0.125125 25.349272-0.36516 37.592355-0.739258 143.934425-4.407459 249.039292-26.091083 312.892542-64.629535 62.461555-37.699604 65.624149-79.703247 65.624149-87.740603 0.002554-58.737176-11.512762-115.732818-34.225475-169.403715zM289.861272 249.243578c0-102.943272 83.788957-186.693925 186.780746-186.693925 102.990513 0 186.779469 83.750653 186.779469 186.693925 0 99.853454-78.835034 181.64552-177.559811 186.46538-3.069389-0.062562-6.140055-0.113634-9.219658-0.113634s-6.150269 0.049795-9.219658 0.113634c-98.726054-4.81986-177.561088-86.611926-177.561088-186.46538z m557.18092 625.478655c-3.204728 5.802984-11.751521 17.451085-32.983163 30.264891-38.480996 23.22598-118.027199 50.469999-280.997198 55.610331-12.057949 0.380482-24.576817 0.638392-37.560435 0.767347-6.182189 0.061286-12.460136 0.095759-18.860655 0.095759-29.844828 0-57.265044-0.688187-82.486637-1.927944 1.135061-84.265197 17.098693-165.016684 45.398613-239.759625a703.983003 703.983003 0 0 0-21.895571-46.303852c-0.870767 2.009658-1.74281 4.019316-2.598256 6.037912a732.662127 732.662127 0 0 0-3.513709 8.451034c-0.388142 0.949927-0.763517 1.902408-1.147829 2.853612-0.755856 1.871765-1.515543 3.743531-2.254801 5.620404-0.462196 1.169534-0.90907 2.344176-1.364882 3.514986-0.646053 1.661096-1.294659 3.320915-1.927944 4.984565-0.490285 1.288275-0.967802 2.580381-1.450427 3.87121-0.57966 1.547462-1.161874 3.094925-1.730042 4.646217-0.501776 1.367436-0.989508 2.738702-1.482347 4.108691-0.532419 1.48107-1.068668 2.960862-1.59215 4.444486-0.500499 1.418507-0.988231 2.840845-1.479792 4.261905-0.496669 1.436382-0.995892 2.872764-1.4849 4.3117-0.497946 1.469578-0.984401 2.942987-1.473409 4.415119-0.462196 1.390418-0.925668 2.780836-1.378927 4.173808-0.494115 1.519373-0.978017 3.042577-1.461918 4.564503-0.428999 1.348284-0.859276 2.696568-1.280614 4.046129a743.196873 743.196873 0 0 0-1.446597 4.710056c-0.39708 1.30615-0.795436 2.611023-1.186132 3.918451a705.352992 705.352992 0 0 0-1.427445 4.85561c-0.366437 1.261463-0.732874 2.522925-1.092927 3.785664a694.656095 694.656095 0 0 0-1.407016 5.007548 697.828903 697.828903 0 0 0-3.30304 12.305645 696.664476 696.664476 0 0 0-2.188408 8.671917 653.279353 653.279353 0 0 0-2.074774 8.661704 691.531804 691.531804 0 0 0-1.317642 5.745528c-0.21833 0.972909-0.43283 1.947096-0.647329 2.920005-0.439214 1.990506-0.87332 3.983566-1.294659 5.977904-0.187687 0.887365-0.370267 1.77473-0.555401 2.663371-0.43283 2.081158-0.860552 4.163593-1.274231 6.248582-0.157044 0.789053-0.308982 1.578105-0.462196 2.367157-0.427723 2.189685-0.850338 4.379369-1.258909 6.574162-0.121294 0.653713-0.238759 1.308704-0.357499 1.963694a716.223532 716.223532 0 0 0-1.252526 6.998053c-0.082991 0.477517-0.160875 0.956311-0.242589 1.435106a707.948694 707.948694 0 0 0-1.255078 7.538133l-0.113634 0.72649c-5.575716 34.951965-8.660427 70.424857-9.223488 106.29483v0.028089c-109.223773-8.472739-170.651132-28.030518-204.561242-45.106228-40.571092-20.429822-47.362306-39.696494-48.263716-43.046776 0.697124-149.271383 89.664717-278.066979 217.290779-336.865441 37.583417 42.860365 70.09417 90.272466 96.541476 141.311911a747.672001 747.672001 0 0 1 19.99827-42.455625 739.87085 739.87085 0 0 0-79.260204-113.663151c34.213984-11.466798 70.621482-18.104799 108.415569-19.087922 3.26346 0.127678 6.537135 0.210669 9.82996 0.210669 3.294103 0 6.567777-0.084268 9.829961-0.210669 12.112851 0.315366 24.080148 1.223159 35.881464 2.672309-32.757173 40.342547-61.085182 83.808108-84.69675 130.078764a742.458892 742.458892 0 0 1 21.792151 41.504421c27.655144-59.518568 63.377009-114.559453 105.727938-163.741177 162.435027 39.695218 283.483097 186.032551 284.27981 360.266339-0.234928 0.895026-0.866936 2.876595-2.416953 5.681689z" fill="#B5A59D" p-id="3852"></path><path d="M439.553993 719.771715a703.211825 703.211825 0 0 1 19.89485-47.255056 742.458892 742.458892 0 0 0-21.792151-41.504421 747.672001 747.672001 0 0 0-19.998269 42.455625 703.983003 703.983003 0 0 1 21.89557 46.303852z" fill="#B5A59D" p-id="3853"></path></svg>